<mxfile host="Electron" agent="Mozilla/5.0 (Windows NT 10.0; Win64; x64) AppleWebKit/537.36 (KHTML, like Gecko) draw.io/21.2.8 Chrome/112.0.5615.165 Electron/24.2.0 Safari/537.36" modified="2025-04-25T20:28:32.228Z" version="21.2.8" etag="GzBccTW3l_bAzHQZhqDy" type="device">
  <diagram name="Página-1" id="xfarC6v1_n0cR07tOJm8">
    <mxGraphModel dx="989" dy="982" grid="1" gridSize="10" guides="1" tooltips="1" connect="1" arrows="1" fold="1" page="0" pageScale="1" pageWidth="827" pageHeight="1169" math="0" shadow="0">
      <root>
        <mxCell id="0" />
        <mxCell id="1" parent="0" />
        <mxCell id="0BR0DY_9edho5m-6d9v9-12" style="edgeStyle=orthogonalEdgeStyle;rounded=0;orthogonalLoop=1;jettySize=auto;html=1;exitX=1;exitY=0.5;exitDx=0;exitDy=0;entryX=0;entryY=0.5;entryDx=0;entryDy=0;" parent="1" source="0BR0DY_9edho5m-6d9v9-1" target="0BR0DY_9edho5m-6d9v9-2" edge="1">
          <mxGeometry relative="1" as="geometry" />
        </mxCell>
        <mxCell id="_deTAQ_5u5SmBCE8b6Ds-1" style="edgeStyle=orthogonalEdgeStyle;rounded=0;orthogonalLoop=1;jettySize=auto;html=1;exitX=1;exitY=0.5;exitDx=0;exitDy=0;" edge="1" parent="1" source="0BR0DY_9edho5m-6d9v9-1" target="0BR0DY_9edho5m-6d9v9-10">
          <mxGeometry relative="1" as="geometry" />
        </mxCell>
        <mxCell id="0BR0DY_9edho5m-6d9v9-1" value="INICIO" style="ellipse;whiteSpace=wrap;html=1;fillColor=#f8cecc;strokeColor=#b85450;" parent="1" vertex="1">
          <mxGeometry x="40" y="280" width="120" height="80" as="geometry" />
        </mxCell>
        <mxCell id="0BR0DY_9edho5m-6d9v9-2" value="Contexto" style="ellipse;whiteSpace=wrap;html=1;fillColor=#d5e8d4;strokeColor=#82b366;" parent="1" vertex="1">
          <mxGeometry x="230" y="50" width="120" height="80" as="geometry" />
        </mxCell>
        <mxCell id="0BR0DY_9edho5m-6d9v9-3" value="Clase" style="ellipse;whiteSpace=wrap;html=1;fillColor=#d5e8d4;strokeColor=#82b366;" parent="1" vertex="1">
          <mxGeometry x="740" y="560" width="120" height="80" as="geometry" />
        </mxCell>
        <mxCell id="0BR0DY_9edho5m-6d9v9-36" style="edgeStyle=orthogonalEdgeStyle;rounded=0;orthogonalLoop=1;jettySize=auto;html=1;exitX=1;exitY=0.5;exitDx=0;exitDy=0;entryX=0;entryY=0.5;entryDx=0;entryDy=0;" parent="1" source="0BR0DY_9edho5m-6d9v9-4" target="0BR0DY_9edho5m-6d9v9-25" edge="1">
          <mxGeometry relative="1" as="geometry" />
        </mxCell>
        <mxCell id="0BR0DY_9edho5m-6d9v9-37" style="edgeStyle=orthogonalEdgeStyle;rounded=0;orthogonalLoop=1;jettySize=auto;html=1;exitX=1;exitY=0.5;exitDx=0;exitDy=0;entryX=0;entryY=0.5;entryDx=0;entryDy=0;" parent="1" source="0BR0DY_9edho5m-6d9v9-4" target="0BR0DY_9edho5m-6d9v9-24" edge="1">
          <mxGeometry relative="1" as="geometry" />
        </mxCell>
        <mxCell id="0BR0DY_9edho5m-6d9v9-38" style="edgeStyle=orthogonalEdgeStyle;rounded=0;orthogonalLoop=1;jettySize=auto;html=1;exitX=1;exitY=0.5;exitDx=0;exitDy=0;entryX=0;entryY=0.5;entryDx=0;entryDy=0;" parent="1" source="0BR0DY_9edho5m-6d9v9-4" target="0BR0DY_9edho5m-6d9v9-27" edge="1">
          <mxGeometry relative="1" as="geometry" />
        </mxCell>
        <mxCell id="0BR0DY_9edho5m-6d9v9-39" style="edgeStyle=orthogonalEdgeStyle;rounded=0;orthogonalLoop=1;jettySize=auto;html=1;exitX=1;exitY=0.5;exitDx=0;exitDy=0;entryX=0;entryY=0.5;entryDx=0;entryDy=0;" parent="1" source="0BR0DY_9edho5m-6d9v9-4" target="0BR0DY_9edho5m-6d9v9-23" edge="1">
          <mxGeometry relative="1" as="geometry" />
        </mxCell>
        <mxCell id="0BR0DY_9edho5m-6d9v9-40" style="edgeStyle=orthogonalEdgeStyle;rounded=0;orthogonalLoop=1;jettySize=auto;html=1;exitX=1;exitY=0.5;exitDx=0;exitDy=0;entryX=0;entryY=0.5;entryDx=0;entryDy=0;" parent="1" source="0BR0DY_9edho5m-6d9v9-4" target="0BR0DY_9edho5m-6d9v9-26" edge="1">
          <mxGeometry relative="1" as="geometry" />
        </mxCell>
        <mxCell id="0BR0DY_9edho5m-6d9v9-4" value="Prototipado&lt;div&gt;Rapido&lt;/div&gt;" style="ellipse;whiteSpace=wrap;html=1;fillColor=#f8cecc;strokeColor=#b85450;" parent="1" vertex="1">
          <mxGeometry x="740" width="120" height="80" as="geometry" />
        </mxCell>
        <mxCell id="0BR0DY_9edho5m-6d9v9-22" style="edgeStyle=orthogonalEdgeStyle;rounded=0;orthogonalLoop=1;jettySize=auto;html=1;exitX=1;exitY=0.5;exitDx=0;exitDy=0;" parent="1" source="0BR0DY_9edho5m-6d9v9-5" target="0BR0DY_9edho5m-6d9v9-3" edge="1">
          <mxGeometry relative="1" as="geometry" />
        </mxCell>
        <mxCell id="0BR0DY_9edho5m-6d9v9-5" value="DER" style="ellipse;whiteSpace=wrap;html=1;fillColor=#d5e8d4;strokeColor=#82b366;" parent="1" vertex="1">
          <mxGeometry x="540" y="560" width="120" height="80" as="geometry" />
        </mxCell>
        <mxCell id="0BR0DY_9edho5m-6d9v9-6" value="Gantt - CPM" style="ellipse;whiteSpace=wrap;html=1;fillColor=#d5e8d4;strokeColor=#82b366;" parent="1" vertex="1">
          <mxGeometry x="540" y="360" width="120" height="80" as="geometry" />
        </mxCell>
        <mxCell id="0BR0DY_9edho5m-6d9v9-7" value="Caso de uso" style="ellipse;whiteSpace=wrap;html=1;fillColor=#d5e8d4;strokeColor=#82b366;" parent="1" vertex="1">
          <mxGeometry x="540" y="190" width="120" height="80" as="geometry" />
        </mxCell>
        <mxCell id="0BR0DY_9edho5m-6d9v9-21" value="" style="edgeStyle=orthogonalEdgeStyle;rounded=0;orthogonalLoop=1;jettySize=auto;html=1;" parent="1" source="0BR0DY_9edho5m-6d9v9-8" target="0BR0DY_9edho5m-6d9v9-4" edge="1">
          <mxGeometry relative="1" as="geometry" />
        </mxCell>
        <mxCell id="0BR0DY_9edho5m-6d9v9-8" value="FODA" style="ellipse;whiteSpace=wrap;html=1;fillColor=#f8cecc;strokeColor=#b85450;" parent="1" vertex="1">
          <mxGeometry x="540" width="120" height="80" as="geometry" />
        </mxCell>
        <mxCell id="0BR0DY_9edho5m-6d9v9-9" value="Documentacion&lt;div&gt;Del&lt;/div&gt;&lt;div&gt;Proyecto&lt;/div&gt;" style="ellipse;whiteSpace=wrap;html=1;fillColor=#d5e8d4;strokeColor=#82b366;" parent="1" vertex="1">
          <mxGeometry x="300" y="480" width="120" height="80" as="geometry" />
        </mxCell>
        <mxCell id="_deTAQ_5u5SmBCE8b6Ds-2" style="edgeStyle=orthogonalEdgeStyle;rounded=0;orthogonalLoop=1;jettySize=auto;html=1;exitX=0.5;exitY=0;exitDx=0;exitDy=0;entryX=0.5;entryY=1;entryDx=0;entryDy=0;" edge="1" parent="1" source="0BR0DY_9edho5m-6d9v9-10" target="0BR0DY_9edho5m-6d9v9-11">
          <mxGeometry relative="1" as="geometry" />
        </mxCell>
        <mxCell id="_deTAQ_5u5SmBCE8b6Ds-3" style="edgeStyle=orthogonalEdgeStyle;rounded=0;orthogonalLoop=1;jettySize=auto;html=1;exitX=0.5;exitY=1;exitDx=0;exitDy=0;" edge="1" parent="1" source="0BR0DY_9edho5m-6d9v9-10" target="0BR0DY_9edho5m-6d9v9-9">
          <mxGeometry relative="1" as="geometry" />
        </mxCell>
        <mxCell id="_deTAQ_5u5SmBCE8b6Ds-4" style="edgeStyle=orthogonalEdgeStyle;rounded=0;orthogonalLoop=1;jettySize=auto;html=1;exitX=1;exitY=0.5;exitDx=0;exitDy=0;" edge="1" parent="1" source="0BR0DY_9edho5m-6d9v9-10" target="0BR0DY_9edho5m-6d9v9-6">
          <mxGeometry relative="1" as="geometry" />
        </mxCell>
        <mxCell id="_deTAQ_5u5SmBCE8b6Ds-5" style="edgeStyle=orthogonalEdgeStyle;rounded=0;orthogonalLoop=1;jettySize=auto;html=1;exitX=1;exitY=0.5;exitDx=0;exitDy=0;entryX=0;entryY=0.5;entryDx=0;entryDy=0;" edge="1" parent="1" source="0BR0DY_9edho5m-6d9v9-10" target="0BR0DY_9edho5m-6d9v9-7">
          <mxGeometry relative="1" as="geometry" />
        </mxCell>
        <mxCell id="_deTAQ_5u5SmBCE8b6Ds-6" style="edgeStyle=orthogonalEdgeStyle;rounded=0;orthogonalLoop=1;jettySize=auto;html=1;exitX=1;exitY=0.5;exitDx=0;exitDy=0;entryX=0;entryY=0.5;entryDx=0;entryDy=0;" edge="1" parent="1" source="0BR0DY_9edho5m-6d9v9-10" target="0BR0DY_9edho5m-6d9v9-8">
          <mxGeometry relative="1" as="geometry" />
        </mxCell>
        <mxCell id="_deTAQ_5u5SmBCE8b6Ds-7" style="edgeStyle=orthogonalEdgeStyle;rounded=0;orthogonalLoop=1;jettySize=auto;html=1;exitX=1;exitY=0.5;exitDx=0;exitDy=0;entryX=0;entryY=0.5;entryDx=0;entryDy=0;" edge="1" parent="1" source="0BR0DY_9edho5m-6d9v9-10" target="0BR0DY_9edho5m-6d9v9-5">
          <mxGeometry relative="1" as="geometry" />
        </mxCell>
        <mxCell id="0BR0DY_9edho5m-6d9v9-10" value="Propuesta&lt;div&gt;Funcional&lt;/div&gt;" style="ellipse;whiteSpace=wrap;html=1;fillColor=#f8cecc;strokeColor=#b85450;" parent="1" vertex="1">
          <mxGeometry x="300" y="320" width="120" height="80" as="geometry" />
        </mxCell>
        <mxCell id="0BR0DY_9edho5m-6d9v9-11" value="Diagrama de secuencia" style="ellipse;whiteSpace=wrap;html=1;fillColor=#d5e8d4;strokeColor=#82b366;" parent="1" vertex="1">
          <mxGeometry x="300" y="160" width="120" height="80" as="geometry" />
        </mxCell>
        <mxCell id="0BR0DY_9edho5m-6d9v9-23" value="Desarrollo&lt;div&gt;Backend&lt;/div&gt;" style="ellipse;whiteSpace=wrap;html=1;fillColor=#d5e8d4;strokeColor=#82b366;" parent="1" vertex="1">
          <mxGeometry x="940" y="160" width="120" height="80" as="geometry" />
        </mxCell>
        <mxCell id="0BR0DY_9edho5m-6d9v9-79" value="" style="edgeStyle=orthogonalEdgeStyle;rounded=0;orthogonalLoop=1;jettySize=auto;html=1;" parent="1" source="0BR0DY_9edho5m-6d9v9-24" target="0BR0DY_9edho5m-6d9v9-31" edge="1">
          <mxGeometry relative="1" as="geometry" />
        </mxCell>
        <mxCell id="0BR0DY_9edho5m-6d9v9-24" value="Microservicios" style="ellipse;whiteSpace=wrap;html=1;fillColor=#f8cecc;strokeColor=#b85450;" parent="1" vertex="1">
          <mxGeometry x="940" y="-160" width="120" height="80" as="geometry" />
        </mxCell>
        <mxCell id="0BR0DY_9edho5m-6d9v9-25" value="Diseño" style="ellipse;whiteSpace=wrap;html=1;fillColor=#d5e8d4;strokeColor=#82b366;" parent="1" vertex="1">
          <mxGeometry x="940" width="120" height="80" as="geometry" />
        </mxCell>
        <mxCell id="0BR0DY_9edho5m-6d9v9-26" value="Desarrollo&lt;div&gt;Frontend&lt;/div&gt;" style="ellipse;whiteSpace=wrap;html=1;fillColor=#d5e8d4;strokeColor=#82b366;" parent="1" vertex="1">
          <mxGeometry x="940" y="320" width="120" height="80" as="geometry" />
        </mxCell>
        <mxCell id="0BR0DY_9edho5m-6d9v9-27" value="Feedback" style="ellipse;whiteSpace=wrap;html=1;fillColor=#d5e8d4;strokeColor=#82b366;" parent="1" vertex="1">
          <mxGeometry x="940" y="-320" width="120" height="80" as="geometry" />
        </mxCell>
        <mxCell id="0BR0DY_9edho5m-6d9v9-35" style="edgeStyle=orthogonalEdgeStyle;rounded=0;orthogonalLoop=1;jettySize=auto;html=1;exitX=1;exitY=0.5;exitDx=0;exitDy=0;entryX=0;entryY=0.5;entryDx=0;entryDy=0;" parent="1" source="0BR0DY_9edho5m-6d9v9-31" target="0BR0DY_9edho5m-6d9v9-34" edge="1">
          <mxGeometry relative="1" as="geometry" />
        </mxCell>
        <mxCell id="0BR0DY_9edho5m-6d9v9-80" style="edgeStyle=orthogonalEdgeStyle;rounded=0;orthogonalLoop=1;jettySize=auto;html=1;exitX=1;exitY=0.5;exitDx=0;exitDy=0;entryX=0;entryY=0.5;entryDx=0;entryDy=0;" parent="1" source="0BR0DY_9edho5m-6d9v9-31" target="0BR0DY_9edho5m-6d9v9-77" edge="1">
          <mxGeometry relative="1" as="geometry" />
        </mxCell>
        <mxCell id="0BR0DY_9edho5m-6d9v9-31" value="3 Tecnicas&lt;div&gt;de&lt;/div&gt;&lt;div&gt;Seguridad&lt;/div&gt;" style="ellipse;whiteSpace=wrap;html=1;fillColor=#f8cecc;strokeColor=#b85450;" parent="1" vertex="1">
          <mxGeometry x="1140" y="-160" width="120" height="80" as="geometry" />
        </mxCell>
        <mxCell id="0BR0DY_9edho5m-6d9v9-94" style="edgeStyle=orthogonalEdgeStyle;rounded=0;orthogonalLoop=1;jettySize=auto;html=1;exitX=1;exitY=0.5;exitDx=0;exitDy=0;entryX=0;entryY=0.5;entryDx=0;entryDy=0;" parent="1" source="0BR0DY_9edho5m-6d9v9-34" target="0BR0DY_9edho5m-6d9v9-88" edge="1">
          <mxGeometry relative="1" as="geometry" />
        </mxCell>
        <mxCell id="0BR0DY_9edho5m-6d9v9-34" value="Manual de Deploy&lt;div&gt;y de&lt;/div&gt;&lt;div&gt;Usuario&lt;/div&gt;" style="ellipse;whiteSpace=wrap;html=1;fillColor=#f8cecc;strokeColor=#b85450;" parent="1" vertex="1">
          <mxGeometry x="1330" y="-80" width="120" height="80" as="geometry" />
        </mxCell>
        <mxCell id="0BR0DY_9edho5m-6d9v9-41" value="0" style="text;html=1;align=center;verticalAlign=middle;whiteSpace=wrap;rounded=0;" parent="1" vertex="1">
          <mxGeometry x="30" y="250" width="60" height="30" as="geometry" />
        </mxCell>
        <mxCell id="0BR0DY_9edho5m-6d9v9-42" value="0" style="text;html=1;align=center;verticalAlign=middle;whiteSpace=wrap;rounded=0;" parent="1" vertex="1">
          <mxGeometry x="110" y="250" width="60" height="30" as="geometry" />
        </mxCell>
        <mxCell id="0BR0DY_9edho5m-6d9v9-93" style="edgeStyle=orthogonalEdgeStyle;rounded=0;orthogonalLoop=1;jettySize=auto;html=1;exitX=1;exitY=0.5;exitDx=0;exitDy=0;entryX=0;entryY=0.5;entryDx=0;entryDy=0;" parent="1" source="0BR0DY_9edho5m-6d9v9-77" target="0BR0DY_9edho5m-6d9v9-88" edge="1">
          <mxGeometry relative="1" as="geometry" />
        </mxCell>
        <mxCell id="0BR0DY_9edho5m-6d9v9-77" value="QA Caja&lt;div&gt;Negra&lt;/div&gt;" style="ellipse;whiteSpace=wrap;html=1;fillColor=#d5e8d4;strokeColor=#82b366;" parent="1" vertex="1">
          <mxGeometry x="1330" y="-240" width="120" height="80" as="geometry" />
        </mxCell>
        <mxCell id="0BR0DY_9edho5m-6d9v9-88" value="FIN" style="ellipse;whiteSpace=wrap;html=1;fillColor=#f8cecc;strokeColor=#b85450;" parent="1" vertex="1">
          <mxGeometry x="1620" y="-160" width="120" height="80" as="geometry" />
        </mxCell>
        <mxCell id="_deTAQ_5u5SmBCE8b6Ds-8" value="0" style="text;html=1;strokeColor=none;fillColor=none;align=center;verticalAlign=middle;whiteSpace=wrap;rounded=0;" vertex="1" parent="1">
          <mxGeometry x="220" y="10" width="60" height="30" as="geometry" />
        </mxCell>
        <mxCell id="_deTAQ_5u5SmBCE8b6Ds-9" value="1" style="text;html=1;strokeColor=none;fillColor=none;align=center;verticalAlign=middle;whiteSpace=wrap;rounded=0;" vertex="1" parent="1">
          <mxGeometry x="300" y="10" width="60" height="30" as="geometry" />
        </mxCell>
        <mxCell id="_deTAQ_5u5SmBCE8b6Ds-10" value="0" style="text;html=1;strokeColor=none;fillColor=none;align=center;verticalAlign=middle;whiteSpace=wrap;rounded=0;" vertex="1" parent="1">
          <mxGeometry x="290" y="290" width="60" height="30" as="geometry" />
        </mxCell>
        <mxCell id="_deTAQ_5u5SmBCE8b6Ds-11" value="1" style="text;html=1;strokeColor=none;fillColor=none;align=center;verticalAlign=middle;whiteSpace=wrap;rounded=0;" vertex="1" parent="1">
          <mxGeometry x="370" y="290" width="60" height="30" as="geometry" />
        </mxCell>
        <mxCell id="_deTAQ_5u5SmBCE8b6Ds-14" value="1" style="text;html=1;strokeColor=none;fillColor=none;align=center;verticalAlign=middle;whiteSpace=wrap;rounded=0;" vertex="1" parent="1">
          <mxGeometry x="530" y="-30" width="60" height="30" as="geometry" />
        </mxCell>
        <mxCell id="_deTAQ_5u5SmBCE8b6Ds-15" value="3" style="text;html=1;strokeColor=none;fillColor=none;align=center;verticalAlign=middle;whiteSpace=wrap;rounded=0;" vertex="1" parent="1">
          <mxGeometry x="600" y="-30" width="60" height="30" as="geometry" />
        </mxCell>
        <mxCell id="_deTAQ_5u5SmBCE8b6Ds-16" value="1" style="text;html=1;strokeColor=none;fillColor=none;align=center;verticalAlign=middle;whiteSpace=wrap;rounded=0;" vertex="1" parent="1">
          <mxGeometry x="530" y="160" width="60" height="30" as="geometry" />
        </mxCell>
        <mxCell id="_deTAQ_5u5SmBCE8b6Ds-17" value="1" style="text;html=1;strokeColor=none;fillColor=none;align=center;verticalAlign=middle;whiteSpace=wrap;rounded=0;" vertex="1" parent="1">
          <mxGeometry x="530" y="330" width="60" height="30" as="geometry" />
        </mxCell>
        <mxCell id="_deTAQ_5u5SmBCE8b6Ds-18" value="1" style="text;html=1;strokeColor=none;fillColor=none;align=center;verticalAlign=middle;whiteSpace=wrap;rounded=0;" vertex="1" parent="1">
          <mxGeometry x="530" y="530" width="60" height="30" as="geometry" />
        </mxCell>
        <mxCell id="_deTAQ_5u5SmBCE8b6Ds-19" value="3" style="text;html=1;strokeColor=none;fillColor=none;align=center;verticalAlign=middle;whiteSpace=wrap;rounded=0;" vertex="1" parent="1">
          <mxGeometry x="600" y="160" width="60" height="30" as="geometry" />
        </mxCell>
        <mxCell id="_deTAQ_5u5SmBCE8b6Ds-20" value="2" style="text;html=1;strokeColor=none;fillColor=none;align=center;verticalAlign=middle;whiteSpace=wrap;rounded=0;" vertex="1" parent="1">
          <mxGeometry x="600" y="330" width="60" height="30" as="geometry" />
        </mxCell>
        <mxCell id="_deTAQ_5u5SmBCE8b6Ds-21" value="2" style="text;html=1;strokeColor=none;fillColor=none;align=center;verticalAlign=middle;whiteSpace=wrap;rounded=0;" vertex="1" parent="1">
          <mxGeometry x="600" y="530" width="60" height="30" as="geometry" />
        </mxCell>
        <mxCell id="_deTAQ_5u5SmBCE8b6Ds-22" value="2" style="text;html=1;strokeColor=none;fillColor=none;align=center;verticalAlign=middle;whiteSpace=wrap;rounded=0;" vertex="1" parent="1">
          <mxGeometry x="730" y="530" width="60" height="30" as="geometry" />
        </mxCell>
        <mxCell id="_deTAQ_5u5SmBCE8b6Ds-23" value="3" style="text;html=1;strokeColor=none;fillColor=none;align=center;verticalAlign=middle;whiteSpace=wrap;rounded=0;" vertex="1" parent="1">
          <mxGeometry x="800" y="530" width="60" height="30" as="geometry" />
        </mxCell>
        <mxCell id="_deTAQ_5u5SmBCE8b6Ds-24" value="3" style="text;html=1;strokeColor=none;fillColor=none;align=center;verticalAlign=middle;whiteSpace=wrap;rounded=0;" vertex="1" parent="1">
          <mxGeometry x="730" y="-30" width="60" height="30" as="geometry" />
        </mxCell>
        <mxCell id="_deTAQ_5u5SmBCE8b6Ds-25" value="13" style="text;html=1;strokeColor=none;fillColor=none;align=center;verticalAlign=middle;whiteSpace=wrap;rounded=0;" vertex="1" parent="1">
          <mxGeometry x="800" y="-30" width="60" height="30" as="geometry" />
        </mxCell>
        <mxCell id="_deTAQ_5u5SmBCE8b6Ds-26" value="13" style="text;html=1;strokeColor=none;fillColor=none;align=center;verticalAlign=middle;whiteSpace=wrap;rounded=0;" vertex="1" parent="1">
          <mxGeometry x="930" y="-30" width="60" height="30" as="geometry" />
        </mxCell>
        <mxCell id="_deTAQ_5u5SmBCE8b6Ds-27" value="13" style="text;html=1;strokeColor=none;fillColor=none;align=center;verticalAlign=middle;whiteSpace=wrap;rounded=0;" vertex="1" parent="1">
          <mxGeometry x="930" y="-190" width="60" height="30" as="geometry" />
        </mxCell>
        <mxCell id="_deTAQ_5u5SmBCE8b6Ds-28" value="13" style="text;html=1;strokeColor=none;fillColor=none;align=center;verticalAlign=middle;whiteSpace=wrap;rounded=0;" vertex="1" parent="1">
          <mxGeometry x="930" y="-350" width="60" height="30" as="geometry" />
        </mxCell>
        <mxCell id="_deTAQ_5u5SmBCE8b6Ds-29" value="13" style="text;html=1;strokeColor=none;fillColor=none;align=center;verticalAlign=middle;whiteSpace=wrap;rounded=0;" vertex="1" parent="1">
          <mxGeometry x="930" y="130" width="60" height="30" as="geometry" />
        </mxCell>
        <mxCell id="_deTAQ_5u5SmBCE8b6Ds-30" value="13" style="text;html=1;strokeColor=none;fillColor=none;align=center;verticalAlign=middle;whiteSpace=wrap;rounded=0;" vertex="1" parent="1">
          <mxGeometry x="930" y="290" width="60" height="30" as="geometry" />
        </mxCell>
        <mxCell id="_deTAQ_5u5SmBCE8b6Ds-31" value="27" style="text;html=1;strokeColor=none;fillColor=none;align=center;verticalAlign=middle;whiteSpace=wrap;rounded=0;" vertex="1" parent="1">
          <mxGeometry x="1000" y="-190" width="60" height="30" as="geometry" />
        </mxCell>
        <mxCell id="_deTAQ_5u5SmBCE8b6Ds-32" value="48" style="text;html=1;strokeColor=none;fillColor=none;align=center;verticalAlign=middle;whiteSpace=wrap;rounded=0;" vertex="1" parent="1">
          <mxGeometry x="1000" y="-30" width="60" height="30" as="geometry" />
        </mxCell>
        <mxCell id="_deTAQ_5u5SmBCE8b6Ds-33" value="34" style="text;html=1;strokeColor=none;fillColor=none;align=center;verticalAlign=middle;whiteSpace=wrap;rounded=0;" vertex="1" parent="1">
          <mxGeometry x="1000" y="130" width="60" height="30" as="geometry" />
        </mxCell>
        <mxCell id="_deTAQ_5u5SmBCE8b6Ds-34" value="34" style="text;html=1;strokeColor=none;fillColor=none;align=center;verticalAlign=middle;whiteSpace=wrap;rounded=0;" vertex="1" parent="1">
          <mxGeometry x="1000" y="290" width="60" height="30" as="geometry" />
        </mxCell>
        <mxCell id="_deTAQ_5u5SmBCE8b6Ds-35" value="14" style="text;html=1;strokeColor=none;fillColor=none;align=center;verticalAlign=middle;whiteSpace=wrap;rounded=0;" vertex="1" parent="1">
          <mxGeometry x="1000" y="-350" width="60" height="30" as="geometry" />
        </mxCell>
        <mxCell id="_deTAQ_5u5SmBCE8b6Ds-36" value="27" style="text;html=1;strokeColor=none;fillColor=none;align=center;verticalAlign=middle;whiteSpace=wrap;rounded=0;" vertex="1" parent="1">
          <mxGeometry x="1130" y="-190" width="60" height="30" as="geometry" />
        </mxCell>
        <mxCell id="_deTAQ_5u5SmBCE8b6Ds-37" value="48" style="text;html=1;strokeColor=none;fillColor=none;align=center;verticalAlign=middle;whiteSpace=wrap;rounded=0;" vertex="1" parent="1">
          <mxGeometry x="1200" y="-190" width="60" height="30" as="geometry" />
        </mxCell>
        <mxCell id="_deTAQ_5u5SmBCE8b6Ds-38" value="48" style="text;html=1;strokeColor=none;fillColor=none;align=center;verticalAlign=middle;whiteSpace=wrap;rounded=0;" vertex="1" parent="1">
          <mxGeometry x="1320" y="-270" width="60" height="30" as="geometry" />
        </mxCell>
        <mxCell id="_deTAQ_5u5SmBCE8b6Ds-39" value="48" style="text;html=1;strokeColor=none;fillColor=none;align=center;verticalAlign=middle;whiteSpace=wrap;rounded=0;" vertex="1" parent="1">
          <mxGeometry x="1320" y="-110" width="60" height="30" as="geometry" />
        </mxCell>
        <mxCell id="_deTAQ_5u5SmBCE8b6Ds-40" value="53" style="text;html=1;strokeColor=none;fillColor=none;align=center;verticalAlign=middle;whiteSpace=wrap;rounded=0;" vertex="1" parent="1">
          <mxGeometry x="1400" y="-110" width="60" height="30" as="geometry" />
        </mxCell>
        <mxCell id="_deTAQ_5u5SmBCE8b6Ds-41" value="49" style="text;html=1;strokeColor=none;fillColor=none;align=center;verticalAlign=middle;whiteSpace=wrap;rounded=0;" vertex="1" parent="1">
          <mxGeometry x="1400" y="-270" width="60" height="30" as="geometry" />
        </mxCell>
        <mxCell id="_deTAQ_5u5SmBCE8b6Ds-42" value="53" style="text;html=1;strokeColor=none;fillColor=none;align=center;verticalAlign=middle;whiteSpace=wrap;rounded=0;" vertex="1" parent="1">
          <mxGeometry x="1620" y="-200" width="60" height="30" as="geometry" />
        </mxCell>
        <mxCell id="_deTAQ_5u5SmBCE8b6Ds-43" value="53" style="text;html=1;strokeColor=none;fillColor=none;align=center;verticalAlign=middle;whiteSpace=wrap;rounded=0;" vertex="1" parent="1">
          <mxGeometry x="1680" y="-200" width="60" height="30" as="geometry" />
        </mxCell>
        <mxCell id="_deTAQ_5u5SmBCE8b6Ds-44" value="53" style="text;html=1;strokeColor=none;fillColor=none;align=center;verticalAlign=middle;whiteSpace=wrap;rounded=0;" vertex="1" parent="1">
          <mxGeometry x="1610" y="-80" width="60" height="30" as="geometry" />
        </mxCell>
        <mxCell id="_deTAQ_5u5SmBCE8b6Ds-45" value="53" style="text;html=1;strokeColor=none;fillColor=none;align=center;verticalAlign=middle;whiteSpace=wrap;rounded=0;" vertex="1" parent="1">
          <mxGeometry x="1690" y="-80" width="60" height="30" as="geometry" />
        </mxCell>
        <mxCell id="_deTAQ_5u5SmBCE8b6Ds-46" value="53" style="text;html=1;strokeColor=none;fillColor=none;align=center;verticalAlign=middle;whiteSpace=wrap;rounded=0;" vertex="1" parent="1">
          <mxGeometry x="1400" width="60" height="30" as="geometry" />
        </mxCell>
        <mxCell id="_deTAQ_5u5SmBCE8b6Ds-47" value="53" style="text;html=1;strokeColor=none;fillColor=none;align=center;verticalAlign=middle;whiteSpace=wrap;rounded=0;" vertex="1" parent="1">
          <mxGeometry x="1400" y="-160" width="60" height="30" as="geometry" />
        </mxCell>
        <mxCell id="_deTAQ_5u5SmBCE8b6Ds-48" value="48" style="text;html=1;strokeColor=none;fillColor=none;align=center;verticalAlign=middle;whiteSpace=wrap;rounded=0;" vertex="1" parent="1">
          <mxGeometry x="1320" width="60" height="30" as="geometry" />
        </mxCell>
        <mxCell id="_deTAQ_5u5SmBCE8b6Ds-49" value="52" style="text;html=1;strokeColor=none;fillColor=none;align=center;verticalAlign=middle;whiteSpace=wrap;rounded=0;" vertex="1" parent="1">
          <mxGeometry x="1320" y="-160" width="60" height="30" as="geometry" />
        </mxCell>
        <mxCell id="_deTAQ_5u5SmBCE8b6Ds-51" value="48" style="text;html=1;strokeColor=none;fillColor=none;align=center;verticalAlign=middle;whiteSpace=wrap;rounded=0;" vertex="1" parent="1">
          <mxGeometry x="1200" y="-80" width="60" height="30" as="geometry" />
        </mxCell>
        <mxCell id="_deTAQ_5u5SmBCE8b6Ds-54" value="27" style="text;html=1;strokeColor=none;fillColor=none;align=center;verticalAlign=middle;whiteSpace=wrap;rounded=0;" vertex="1" parent="1">
          <mxGeometry x="1130" y="-80" width="60" height="30" as="geometry" />
        </mxCell>
        <mxCell id="_deTAQ_5u5SmBCE8b6Ds-55" value="27" style="text;html=1;strokeColor=none;fillColor=none;align=center;verticalAlign=middle;whiteSpace=wrap;rounded=0;" vertex="1" parent="1">
          <mxGeometry x="1000" y="-80" width="60" height="30" as="geometry" />
        </mxCell>
        <mxCell id="_deTAQ_5u5SmBCE8b6Ds-56" value="13" style="text;html=1;strokeColor=none;fillColor=none;align=center;verticalAlign=middle;whiteSpace=wrap;rounded=0;" vertex="1" parent="1">
          <mxGeometry x="930" y="-80" width="60" height="30" as="geometry" />
        </mxCell>
        <mxCell id="_deTAQ_5u5SmBCE8b6Ds-57" value="13" style="text;html=1;strokeColor=none;fillColor=none;align=center;verticalAlign=middle;whiteSpace=wrap;rounded=0;" vertex="1" parent="1">
          <mxGeometry x="800" y="80" width="60" height="30" as="geometry" />
        </mxCell>
        <mxCell id="_deTAQ_5u5SmBCE8b6Ds-58" value="3" style="text;html=1;strokeColor=none;fillColor=none;align=center;verticalAlign=middle;whiteSpace=wrap;rounded=0;" vertex="1" parent="1">
          <mxGeometry x="730" y="80" width="60" height="30" as="geometry" />
        </mxCell>
        <mxCell id="_deTAQ_5u5SmBCE8b6Ds-59" value="3" style="text;html=1;strokeColor=none;fillColor=none;align=center;verticalAlign=middle;whiteSpace=wrap;rounded=0;" vertex="1" parent="1">
          <mxGeometry x="600" y="80" width="60" height="30" as="geometry" />
        </mxCell>
        <mxCell id="_deTAQ_5u5SmBCE8b6Ds-60" value="1" style="text;html=1;strokeColor=none;fillColor=none;align=center;verticalAlign=middle;whiteSpace=wrap;rounded=0;" vertex="1" parent="1">
          <mxGeometry x="530" y="80" width="60" height="30" as="geometry" />
        </mxCell>
        <mxCell id="_deTAQ_5u5SmBCE8b6Ds-61" value="1" style="text;html=1;strokeColor=none;fillColor=none;align=center;verticalAlign=middle;whiteSpace=wrap;rounded=0;" vertex="1" parent="1">
          <mxGeometry x="370" y="390" width="60" height="30" as="geometry" />
        </mxCell>
        <mxCell id="_deTAQ_5u5SmBCE8b6Ds-62" value="0" style="text;html=1;strokeColor=none;fillColor=none;align=center;verticalAlign=middle;whiteSpace=wrap;rounded=0;" vertex="1" parent="1">
          <mxGeometry x="290" y="390" width="60" height="30" as="geometry" />
        </mxCell>
        <mxCell id="_deTAQ_5u5SmBCE8b6Ds-63" value="1" style="text;html=1;strokeColor=none;fillColor=none;align=center;verticalAlign=middle;whiteSpace=wrap;rounded=0;" vertex="1" parent="1">
          <mxGeometry x="290" y="130" width="60" height="30" as="geometry" />
        </mxCell>
        <mxCell id="_deTAQ_5u5SmBCE8b6Ds-64" value="1" style="text;html=1;strokeColor=none;fillColor=none;align=center;verticalAlign=middle;whiteSpace=wrap;rounded=0;" vertex="1" parent="1">
          <mxGeometry x="290" y="450" width="60" height="30" as="geometry" />
        </mxCell>
        <mxCell id="_deTAQ_5u5SmBCE8b6Ds-65" value="2" style="text;html=1;strokeColor=none;fillColor=none;align=center;verticalAlign=middle;whiteSpace=wrap;rounded=0;" vertex="1" parent="1">
          <mxGeometry x="370" y="450" width="60" height="30" as="geometry" />
        </mxCell>
        <mxCell id="_deTAQ_5u5SmBCE8b6Ds-66" value="3" style="text;html=1;strokeColor=none;fillColor=none;align=center;verticalAlign=middle;whiteSpace=wrap;rounded=0;" vertex="1" parent="1">
          <mxGeometry x="370" y="130" width="60" height="30" as="geometry" />
        </mxCell>
        <mxCell id="_deTAQ_5u5SmBCE8b6Ds-68" value="0" style="text;html=1;strokeColor=none;fillColor=none;align=center;verticalAlign=middle;whiteSpace=wrap;rounded=0;" vertex="1" parent="1">
          <mxGeometry x="110" y="360" width="60" height="30" as="geometry" />
        </mxCell>
        <mxCell id="_deTAQ_5u5SmBCE8b6Ds-69" value="0" style="text;html=1;strokeColor=none;fillColor=none;align=center;verticalAlign=middle;whiteSpace=wrap;rounded=0;" vertex="1" parent="1">
          <mxGeometry x="30" y="360" width="60" height="30" as="geometry" />
        </mxCell>
        <mxCell id="_deTAQ_5u5SmBCE8b6Ds-70" value="H=0" style="text;html=1;strokeColor=none;fillColor=none;align=center;verticalAlign=middle;whiteSpace=wrap;rounded=0;" vertex="1" parent="1">
          <mxGeometry x="70" y="400" width="60" height="30" as="geometry" />
        </mxCell>
        <mxCell id="_deTAQ_5u5SmBCE8b6Ds-71" value="H=0" style="text;html=1;strokeColor=none;fillColor=none;align=center;verticalAlign=middle;whiteSpace=wrap;rounded=0;" vertex="1" parent="1">
          <mxGeometry x="410" y="370" width="60" height="30" as="geometry" />
        </mxCell>
        <mxCell id="_deTAQ_5u5SmBCE8b6Ds-72" value="H=0" style="text;html=1;strokeColor=none;fillColor=none;align=center;verticalAlign=middle;whiteSpace=wrap;rounded=0;" vertex="1" parent="1">
          <mxGeometry x="570" y="80" width="60" height="30" as="geometry" />
        </mxCell>
        <mxCell id="_deTAQ_5u5SmBCE8b6Ds-73" value="H=0" style="text;html=1;strokeColor=none;fillColor=none;align=center;verticalAlign=middle;whiteSpace=wrap;rounded=0;" vertex="1" parent="1">
          <mxGeometry x="770" y="80" width="60" height="30" as="geometry" />
        </mxCell>
        <mxCell id="_deTAQ_5u5SmBCE8b6Ds-74" value="H=0" style="text;html=1;strokeColor=none;fillColor=none;align=center;verticalAlign=middle;whiteSpace=wrap;rounded=0;" vertex="1" parent="1">
          <mxGeometry x="970" y="-80" width="60" height="30" as="geometry" />
        </mxCell>
        <mxCell id="_deTAQ_5u5SmBCE8b6Ds-75" value="H=0" style="text;html=1;strokeColor=none;fillColor=none;align=center;verticalAlign=middle;whiteSpace=wrap;rounded=0;" vertex="1" parent="1">
          <mxGeometry x="1170" y="-80" width="60" height="30" as="geometry" />
        </mxCell>
        <mxCell id="_deTAQ_5u5SmBCE8b6Ds-77" value="H=0" style="text;html=1;strokeColor=none;fillColor=none;align=center;verticalAlign=middle;whiteSpace=wrap;rounded=0;" vertex="1" parent="1">
          <mxGeometry x="1360" width="60" height="30" as="geometry" />
        </mxCell>
        <mxCell id="_deTAQ_5u5SmBCE8b6Ds-80" value="" style="rounded=0;whiteSpace=wrap;html=1;" vertex="1" parent="1">
          <mxGeometry x="2140" y="200" width="440" height="240" as="geometry" />
        </mxCell>
        <mxCell id="_deTAQ_5u5SmBCE8b6Ds-85" value="" style="ellipse;whiteSpace=wrap;html=1;aspect=fixed;" vertex="1" parent="1">
          <mxGeometry x="2320" y="280" width="80" height="80" as="geometry" />
        </mxCell>
        <mxCell id="_deTAQ_5u5SmBCE8b6Ds-86" value="Actor" style="shape=umlActor;verticalLabelPosition=bottom;verticalAlign=top;html=1;outlineConnect=0;" vertex="1" parent="1">
          <mxGeometry x="2300" y="245" width="10" height="20" as="geometry" />
        </mxCell>
        <mxCell id="_deTAQ_5u5SmBCE8b6Ds-87" value="Actor" style="shape=umlActor;verticalLabelPosition=bottom;verticalAlign=top;html=1;outlineConnect=0;" vertex="1" parent="1">
          <mxGeometry x="2390" y="250" width="20" height="20" as="geometry" />
        </mxCell>
        <mxCell id="_deTAQ_5u5SmBCE8b6Ds-89" value="Actor" style="shape=umlActor;verticalLabelPosition=bottom;verticalAlign=top;html=1;outlineConnect=0;" vertex="1" parent="1">
          <mxGeometry x="2290" y="370" width="20" height="20" as="geometry" />
        </mxCell>
        <mxCell id="_deTAQ_5u5SmBCE8b6Ds-84" value="" style="endArrow=none;html=1;rounded=0;entryX=0.5;entryY=0;entryDx=0;entryDy=0;exitX=0.5;exitY=1;exitDx=0;exitDy=0;" edge="1" parent="1" source="_deTAQ_5u5SmBCE8b6Ds-80" target="_deTAQ_5u5SmBCE8b6Ds-80">
          <mxGeometry width="50" height="50" relative="1" as="geometry">
            <mxPoint x="2360" y="340" as="sourcePoint" />
            <mxPoint x="2410" y="290" as="targetPoint" />
          </mxGeometry>
        </mxCell>
        <mxCell id="_deTAQ_5u5SmBCE8b6Ds-91" value="" style="shape=or;whiteSpace=wrap;html=1;" vertex="1" parent="1">
          <mxGeometry x="2420" y="230" width="60" height="80" as="geometry" />
        </mxCell>
        <mxCell id="_deTAQ_5u5SmBCE8b6Ds-92" value="H=4" style="text;html=1;strokeColor=none;fillColor=none;align=center;verticalAlign=middle;whiteSpace=wrap;rounded=0;" vertex="1" parent="1">
          <mxGeometry x="1360" y="-160" width="60" height="30" as="geometry" />
        </mxCell>
      </root>
    </mxGraphModel>
  </diagram>
</mxfile>
